  <svg
          width="20"
          height="12"
          viewBox="0 0 20 12"
          fill="none"
          xmlns="http://www.w3.org/2000/svg"
        >
          <path
            d="M9.99286 7.34329e-05C10.2001 7.34329e-05 10.3969 0.0374346 10.5833 0.112157C10.7694 0.186602 10.9443 0.305629 11.1079 0.46924L19.1537 8.51507C19.4598 8.82118 19.6081 9.1941 19.5987 9.63382C19.5895 10.0738 19.4319 10.4469 19.1258 10.753C18.8197 11.0591 18.4466 11.2122 18.0066 11.2122C17.5669 11.2122 17.194 11.0591 16.8879 10.753L9.99286 3.83007L3.06995 10.753C2.76384 11.0591 2.3955 11.2076 1.96495 11.1984C1.53439 11.189 1.16606 11.0312 0.859947 10.7251C0.553837 10.419 0.40078 10.046 0.40078 9.60632C0.40078 9.16632 0.553837 8.79327 0.859947 8.48716L8.87786 0.46924C9.04147 0.305629 9.21634 0.186602 9.40245 0.112157C9.58884 0.0374346 9.78564 7.34329e-05 9.99286 7.34329e-05Z"
            fill="#5D5D5D"
          />
        </svg>