<svg width="49" height="48" viewBox="0 0 49 48" fill="none" xmlns="http://www.w3.org/2000/svg">
<mask id="mask0_337_206" style="mask-type:alpha" maskUnits="userSpaceOnUse" x="0" y="0" width="49" height="48">
<rect x="0.5" width="48" height="48" fill="#D9D9D9"/>
</mask>
<g mask="url(#mask0_337_206)">
<path d="M11.6001 44C10.1418 44 8.90226 43.4895 7.8816 42.4685C6.8606 41.4478 6.3501 40.2083 6.3501 38.75V32.5H12.7001V4L15.6901 7L18.6801 4L21.6701 7L24.6601 4L27.6501 7L30.6501 4L33.6501 7L36.6501 4L39.6501 7L42.6501 4V38.75C42.6501 40.2083 42.1398 41.4478 41.1191 42.4685C40.0981 43.4895 38.8584 44 37.4001 44H11.6001ZM37.4001 41C38.0668 41 38.6084 40.7917 39.0251 40.375C39.4418 39.9583 39.6501 39.4167 39.6501 38.75V9H15.7001V32.5H35.1501V38.75C35.1501 39.4167 35.3584 39.9583 35.7751 40.375C36.1918 40.7917 36.7334 41 37.4001 41ZM18.3501 16.9V13.9H30.3501V16.9H18.3501ZM18.3501 23.6V20.6H30.3501V23.6H18.3501ZM35.0001 16.9C34.6001 16.9 34.2501 16.75 33.9501 16.45C33.6501 16.15 33.5001 15.8 33.5001 15.4C33.5001 15 33.6501 14.65 33.9501 14.35C34.2501 14.05 34.6001 13.9 35.0001 13.9C35.4001 13.9 35.7501 14.05 36.0501 14.35C36.3501 14.65 36.5001 15 36.5001 15.4C36.5001 15.8 36.3501 16.15 36.0501 16.45C35.7501 16.75 35.4001 16.9 35.0001 16.9ZM35.0001 23.35C34.6001 23.35 34.2501 23.2 33.9501 22.9C33.6501 22.6 33.5001 22.25 33.5001 21.85C33.5001 21.45 33.6501 21.1 33.9501 20.8C34.2501 20.5 34.6001 20.35 35.0001 20.35C35.4001 20.35 35.7501 20.5 36.0501 20.8C36.3501 21.1 36.5001 21.45 36.5001 21.85C36.5001 22.25 36.3501 22.6 36.0501 22.9C35.7501 23.2 35.4001 23.35 35.0001 23.35ZM11.5501 41H32.1501V35.5H9.3501V38.75C9.3501 39.4167 9.56093 39.9583 9.9826 40.375C10.4043 40.7917 10.9268 41 11.5501 41Z" fill="#EEEEEE" fill-opacity="0.933333"/>
</g>
</svg>
